<svg xmlns="http://www.w3.org/2000/svg" width="500px" height="500px">

  <g>

    <line
      x1="20"
      y1="320"
      x2="320"
      y2="320"
      stroke="blue">
    </line>

    <line
      x1="60"
      y1="315"
      x2="60"
      y2="320"
      stroke="blue">
    </line>

    <line
      x1="100"
      y1="315"
      x2="100"
      y2="320"
      stroke="blue">
    </line>

    <line
      x1="140"
      y1="315"
      x2="140"
      y2="320"
      stroke="blue">
    </line>

    <line
      x1="180"
      y1="315"
      x2="180"
      y2="320"
      stroke="blue">
    </line>

    <line
      x1="220"
      y1="315"
      x2="220"
      y2="320"
      stroke="blue">
    </line>

    <line
      x1="260"
      y1="315"
      x2="260"
      y2="320"
      stroke="blue">
    </line>

    <line
      x1="300"
      y1="315"
      x2="300"
      y2="320"
      stroke="blue">
    </line>
  </g>
  
  <g>
    <line
      x1="20"
      y1="20"
      x2="20"
      y2="320"
      stroke="blue">
    </line>

    <line
      x1="20"
      y1="280"
      x2="25"
      y2="280"
      stroke="blue">
    </line>

    <line
      x1="20"
      y1="240"
      x2="25"
      y2="240"
      stroke="blue">
    </line>

    <line
      x1="20"
      y1="200"
      x2="25"
      y2="200"
      stroke="blue">
    </line>

    <line
      x1="20"
      y1="160"
      x2="25"
      y2="160"
      stroke="blue">
    </line>

    <line
      x1="20"
      y1="120"
      x2="25"
      y2="120"
      stroke="blue">
    </line>

    <line
      x1="20"
      y1="80"
      x2="25"
      y2="80"
      stroke="blue">
    </line>

    <line
      x1="20"
      y1="40"
      x2="25"
      y2="40"
      stroke="blue">
    </line>
  </g>
  
</svg>